<svg id="Layer_1" data-name="Layer 1" xmlns="http://www.w3.org/2000/svg" xmlns:xlink="http://www.w3.org/1999/xlink" viewBox="0 0 408.4 96.76"><defs><style>.cls-1,.cls-6{fill:#020202;}.cls-2{fill:url(#linear-gradient);}.cls-3{fill:url(#linear-gradient-2);}.cls-4{fill:url(#linear-gradient-3);}.cls-5{fill:url(#linear-gradient-4);}.cls-6{stroke:#231f20;stroke-miterlimit:10;stroke-width:0.75px;}</style><linearGradient id="linear-gradient" x1="46.44" y1="263.73" x2="96.12" y2="263.73" gradientUnits="userSpaceOnUse"><stop offset="0" stop-color="#1c75bc"/><stop offset="1" stop-color="#1b1b4e"/></linearGradient><linearGradient id="linear-gradient-2" x1="128.38" y1="270.76" x2="177.74" y2="270.76" xlink:href="#linear-gradient"/><linearGradient id="linear-gradient-3" x1="107.16" y1="278.38" x2="118.65" y2="278.38" xlink:href="#linear-gradient"/><linearGradient id="linear-gradient-4" x1="107.15" y1="251.71" x2="118.65" y2="251.71" gradientUnits="userSpaceOnUse"><stop offset="0" stop-color="#fdde59"/><stop offset="1" stop-color="#f7941d"/></linearGradient></defs><path class="cls-1" d="M454.38,284.17v-10a17.05,17.05,0,0,0-.16-2.26,20.86,20.86,0,0,0-41.17,6.8l.12.62c1.8,9.2,10.39,16.49,19.59,16.55h20.79c.73,0,.86-.22.85-.88C454.32,291.42,454.38,287.79,454.38,284.17Zm-11.32,1.07c-3.33,0-6.67.06-10,0a10.11,10.11,0,1,1,10.66-9.92v9.3c0,.48-.18.62-.7.62Z" transform="translate(-46 -199.3)"/><path class="cls-1" d="M389.73,254.31c3.47,0,8.39,2.08,12.49,6.09,1.08,1.06,2.13,2.16,3.23,3.21.39.37.44.61,0,1-2.18,2.17-4.34,4.34-6.47,6.55-.48.5-.73.42-1.16,0-1.08-1.11-2.21-2.17-3.32-3.25a10.14,10.14,0,0,0-11.79-1.77,10,10,0,0,0-5.43,10.5,10.27,10.27,0,0,0,8.41,8.48,9.76,9.76,0,0,0,8.8-2.77c1.14-1.15,2.33-2.25,3.46-3.4.36-.37.57-.37.93,0,2.19,2.25,4.4,4.47,6.6,6.69.23.24.5.42.12.79-2.81,2.78-5.47,5.69-9.14,7.47-12.4,6-27.43-1.7-29.67-15.26C364.7,265.77,374.38,254.32,389.73,254.31Z" transform="translate(-46 -199.3)"/><path class="cls-1" d="M237.74,263.49a23.07,23.07,0,0,0-3.38-2.08c.43-.35.8-.63,1.14-.94a15.15,15.15,0,0,0,5.43-11.53c.12-8.17-5.41-14.93-13.62-16.72-1.6-.36-3.24-.55-4.85-.81H194.32v63.75c0,.8.28.89,1,.89H219a52.15,52.15,0,0,0,8.28-.57c3.55-.59,7-1.59,9.82-3.88A18.4,18.4,0,0,0,244,277.2,16,16,0,0,0,237.74,263.49ZM205.5,242.4c0-.54.13-.73.71-.72,5.14.09,10.29-.18,15.42.22a17.94,17.94,0,0,1,3,.44c3.13.72,5.06,3.31,5.19,6.83.17,4.4-2.18,7.15-6.57,7.76a68.57,68.57,0,0,1-9.28.35h-7.72c-.61,0-.79-.15-.78-.76Q205.53,249.46,205.5,242.4Zm26.88,35.19a7.9,7.9,0,0,1-5.83,7.4,24.7,24.7,0,0,1-7,.76c-1.55.05-3.1,0-4.65,0h-8.62c-.68,0-.82-.21-.81-.83V268.31c0-.52.08-.76.69-.75,5.54.12,11.09-.21,16.63.21a12.76,12.76,0,0,1,5.5,1.42C231.55,271.08,232.67,274,232.38,277.59Z" transform="translate(-46 -199.3)"/><path class="cls-1" d="M312.71,284.16v-9.29a20.86,20.86,0,0,0-41.72.62,20.42,20.42,0,0,0,.27,3c1.49,9.57,10.2,17.3,19.72,17.38,7,.07,13.92,0,20.88,0,.72,0,.87-.23.86-.89C312.69,291.41,312.71,287.78,312.71,284.16Zm-11.4,1.08c-3.3,0-6.6.05-9.91,0a10.11,10.11,0,0,1,.3-20.22c5.93,0,10.22,4.34,10.31,10.52v9C302,285.06,301.88,285.25,301.31,285.24Z" transform="translate(-46 -199.3)"/><path class="cls-1" d="M361.14,284.56V295c0,.84-.24,1-1,1-2.9-.05-5.81-.06-8.71,0-.81,0-1-.25-1-1V275.17a10.07,10.07,0,0,0-9.2-10.11,10.19,10.19,0,0,0-10.85,7.86,9.3,9.3,0,0,0-.25,2.35V295c0,.93-.28,1.12-1.15,1.11-2.91-.06-5.81,0-8.72,0-.63,0-.92-.08-.92-.83,0-6.79-.09-13.58,0-20.37a20.89,20.89,0,0,1,41.08-5,20.16,20.16,0,0,1,.67,5.07Q361.14,279.78,361.14,284.56Z" transform="translate(-46 -199.3)"/><path class="cls-1" d="M263.77,267.36v27.48c0,.84-.17,1.11-1.07,1.09-2.93-.07-5.87-.05-8.81,0-.71,0-.87-.21-.87-.88V239.69c0-.71.14-1,.92-.94q4.38.08,8.81,0c.84,0,1,.23,1,1Q263.77,253.58,263.77,267.36Z" transform="translate(-46 -199.3)"/><path class="cls-2" d="M89.86,263.49a23.07,23.07,0,0,0-3.38-2.08c.43-.35.79-.63,1.14-.94a15.15,15.15,0,0,0,5.43-11.53c.12-8.17-5.41-14.93-13.62-16.72-1.6-.36-3.24-.55-4.86-.81H46.44v63.75c0,.8.28.89,1,.89H71.11a52.15,52.15,0,0,0,8.28-.57,20.58,20.58,0,0,0,9.82-3.88,18.36,18.36,0,0,0,6.88-14.4A16,16,0,0,0,89.86,263.49ZM57.61,242.4c0-.54.14-.73.71-.72,5.15.09,10.29-.18,15.43.22a17.94,17.94,0,0,1,3,.44c3.13.72,5.06,3.31,5.19,6.83.16,4.4-2.19,7.15-6.57,7.76a68.66,68.66,0,0,1-9.29.35H58.37c-.61,0-.79-.15-.79-.76Q57.64,249.46,57.61,242.4Zm26.88,35.19a7.9,7.9,0,0,1-5.84,7.4,24.7,24.7,0,0,1-7,.76c-1.55.05-3.1,0-4.65,0H58.38c-.68,0-.82-.21-.82-.83V268.31c0-.52.08-.76.69-.75,5.54.12,11.08-.21,16.62.21a12.77,12.77,0,0,1,5.51,1.42C83.67,271.08,84.79,274,84.49,277.59Z" transform="translate(-46 -199.3)"/><path class="cls-3" d="M128.38,295.18l26.91-37.49H129.84c-1,0-1.39-.15-1.36-1.28.09-3.07.05-6.15,0-9.23,0-.73.12-1,1-1h47.58a3.77,3.77,0,0,1,.68,0L151,283.63a2.13,2.13,0,0,0,1.27.16h24.27c.94,0,1.21.24,1.19,1.19-.06,3.12,0,6.23,0,9.35,0,.65-.06,1-.88,1H128.78A2.37,2.37,0,0,1,128.38,295.18Z" transform="translate(-46 -199.3)"/><path class="cls-4" d="M107.17,278.37V262.48c0-.65.19-.9,1.24-.88h9.24c.74,0,1,.13,1,.69v32.17c0,.52-.17.71-1,.7h-9.49c-.9,0-1-.22-1-.76C107.18,289.06,107.17,283.71,107.17,278.37Z" transform="translate(-46 -199.3)"/><path class="cls-5" d="M112.9,246h0a5.75,5.75,0,0,1,5.75,5.75h0a5.75,5.75,0,0,1-5.75,5.75h0a5.74,5.74,0,0,1-5.75-5.75h0A5.74,5.74,0,0,1,112.9,246Z" transform="translate(-46 -199.3)"/><path class="cls-6" d="M46.38,216.81V201.27h3v15.54Z" transform="translate(-46 -199.3)"/><path class="cls-6" d="M65.32,216.79V204.08H60.67v-2.83H73v2.83h-4.6v12.71Z" transform="translate(-46 -199.3)"/><path class="cls-6" d="M97.45,221.94v-2.45h.36a1.59,1.59,0,0,0,1.27-.44,2.35,2.35,0,0,0,.37-1.46V205h2.83v12.39a5.14,5.14,0,0,1-1,3.39A4,4,0,0,1,98.05,222Zm3.38-18.33A1.83,1.83,0,0,1,99,201.8v-.06a1.86,1.86,0,0,1,1.81-1.91h.06a1.83,1.83,0,0,1,1.34.55,2,2,0,0,1,0,2.69A1.86,1.86,0,0,1,100.83,203.61Z" transform="translate(-46 -199.3)"/><path class="cls-6" d="M126.13,210.87a6.52,6.52,0,0,1-.46,2.47,5.79,5.79,0,0,1-1.31,2,6.21,6.21,0,0,1-2,1.28,6.78,6.78,0,0,1-2.55.47,6.94,6.94,0,0,1-2.55-.46,5.88,5.88,0,0,1-2-1.29,5.52,5.52,0,0,1-1.31-2,6.82,6.82,0,0,1,0-5,5.62,5.62,0,0,1,1.3-2,5.88,5.88,0,0,1,2-1.29,6.7,6.7,0,0,1,2.55-.46,7,7,0,0,1,2.55.46,6.05,6.05,0,0,1,2,1.28,5.79,5.79,0,0,1,1.31,2A6.44,6.44,0,0,1,126.13,210.87Zm-6.32,3.55a3.29,3.29,0,0,0,2.51-1,4,4,0,0,0,0-5.11,3.29,3.29,0,0,0-2.51-1,3.35,3.35,0,0,0-2.51,1,3.9,3.9,0,0,0,0,5.11,3.32,3.32,0,0,0,2.51,1Z" transform="translate(-46 -199.3)"/><path class="cls-6" d="M136.93,199.87h2.83v6.78h.05a3.87,3.87,0,0,1,1.57-1.43,5,5,0,0,1,2.34-.53,6.09,6.09,0,0,1,2.1.38,5.37,5.37,0,0,1,1.86,1.15,6,6,0,0,1,1.34,1.93,6.68,6.68,0,0,1,.51,2.72,6.52,6.52,0,0,1-.46,2.47,5.79,5.79,0,0,1-1.31,2,6.08,6.08,0,0,1-2,1.29,6.92,6.92,0,0,1-2.54.46,7.18,7.18,0,0,1-2.56-.43,5.52,5.52,0,0,1-2-1.26,5.6,5.6,0,0,1-1.29-2,6.54,6.54,0,0,1-.47-2.59Zm6.29,14.53a3.37,3.37,0,0,0,2.52-1,3.59,3.59,0,0,0,.95-2.56,3.51,3.51,0,0,0-1-2.55,3.67,3.67,0,0,0-5,0,3.93,3.93,0,0,0,0,5.11,3.24,3.24,0,0,0,2.53,1Z" transform="translate(-46 -199.3)"/><path class="cls-6" d="M176,216.68V199.81h2.82V210h0l4.61-5.09h3.61l-5.51,5.76,5.74,6H183.6l-4.76-5.25h0v5.26Z" transform="translate(-46 -199.3)"/><path class="cls-6" d="M199.62,211.78v.09a3.26,3.26,0,0,0,1.15,1.88,3.42,3.42,0,0,0,2.2.69,3.34,3.34,0,0,0,2.78-1.12h3a5.65,5.65,0,0,1-2.18,2.69,6.43,6.43,0,0,1-3.62,1,6.7,6.7,0,0,1-2.55-.46,5.85,5.85,0,0,1-2-1.28,5.65,5.65,0,0,1-1.31-2,6.34,6.34,0,0,1-.46-2.47,6.13,6.13,0,0,1,.46-2.47,5.62,5.62,0,0,1,1.3-2,6,6,0,0,1,2-1.28,6.71,6.71,0,0,1,2.55-.47,6.92,6.92,0,0,1,2.54.46,6,6,0,0,1,2,1.29,5.88,5.88,0,0,1,1.29,2,6.57,6.57,0,0,1,.46,2.48v1Zm3.34-4.61a3.41,3.41,0,0,0-2.1.62,3.15,3.15,0,0,0-1.17,1.69h6.56v0a3.23,3.23,0,0,0-1.19-1.68A3.42,3.42,0,0,0,203,207.17Z" transform="translate(-46 -199.3)"/><path class="cls-6" d="M235.75,216.62V199.75h2.83v16.88Z" transform="translate(-46 -199.3)"/><path class="cls-6" d="M252.06,203.46a1.89,1.89,0,0,1,0-3.78,1.83,1.83,0,0,1,1.34.55,1.93,1.93,0,0,1,0,2.68A1.75,1.75,0,0,1,252.06,203.46Zm-1.39,13.14V204.87h2.83v11.74Z" transform="translate(-46 -199.3)"/><path class="cls-6" d="M274,214.87h0a3.81,3.81,0,0,1-1.41,1.38,4,4,0,0,1-2,.5,5.65,5.65,0,0,1-2-.34,4.65,4.65,0,0,1-1.69-1.06,5.05,5.05,0,0,1-1.18-1.84,7.54,7.54,0,0,1-.44-2.7v-6h2.83v6a3.35,3.35,0,0,0,.81,2.5,3,3,0,0,0,2.16.8,2.91,2.91,0,0,0,2.14-.83,3.45,3.45,0,0,0,.83-2.48v-6h2.83v11.37a6.94,6.94,0,0,1-.45,2.63,4.7,4.7,0,0,1-1.24,1.77,4.92,4.92,0,0,1-1.87,1,8,8,0,0,1-4.22.09,5.6,5.6,0,0,1-1.66-.73,5,5,0,0,1-1.28-1.26,4.86,4.86,0,0,1-.78-1.81h2.83a2.75,2.75,0,0,0,2.83,1.59,3.05,3.05,0,0,0,2.23-.75,3.29,3.29,0,0,0,.78-2.46Z" transform="translate(-46 -199.3)"/><path class="cls-6" d="M291,211.69v.05a3.17,3.17,0,0,0,1.16,1.87,3.42,3.42,0,0,0,2.2.69,3.34,3.34,0,0,0,2.78-1.12h3a5.7,5.7,0,0,1-2.18,2.69,6.5,6.5,0,0,1-3.61,1,6.75,6.75,0,0,1-2.56-.46,6,6,0,0,1-2-1.28,5.52,5.52,0,0,1-1.31-2,6.75,6.75,0,0,1,0-5,5.65,5.65,0,0,1,1.31-2,5.85,5.85,0,0,1,2-1.28,7.22,7.22,0,0,1,5.1,0,5.54,5.54,0,0,1,3.28,3.28,6.69,6.69,0,0,1,.47,2.47v1Zm3.35-4.61a3.41,3.41,0,0,0-2.1.62,3.07,3.07,0,0,0-1.18,1.69h6.56v0a3.23,3.23,0,0,0-1.19-1.69A3.45,3.45,0,0,0,294.3,207.08Z" transform="translate(-46 -199.3)"/></svg>