<svg id="Layer_1" data-name="Layer 1" xmlns="http://www.w3.org/2000/svg" viewBox="0 0 177.37 34.85"><defs><linearGradient id="linear-gradient" x1="14.6" y1="1.83" x2="14.84" y2="41.41" gradientUnits="userSpaceOnUse"><stop offset=".01" stop-color="#1e5594"/><stop offset=".48" stop-color="#2fa5de"/></linearGradient><style>.cls-3{fill:#231f20}</style></defs><path d="M10.74 19a1.46 1.46.0 01-.45 1 1.51 1.51.0 01-1 .42 1.54 1.54.0 01-1.36-.8A1.4 1.4.0 017.71 19a1.5 1.5.0 01.17-.69 1.6 1.6.0 011.34-.86 1.44 1.44.0 011.07.45 1.57 1.57.0 01.45 1.1z" style="fill:#1d3362"/><path d="M23.23 32a13.19 13.19.0 01-6.49 2.37 29.31 29.31.0 01-3.11.16 27.67 27.67.0 01-4.89-.34A9.72 9.72.0 014.18 32a12.64 12.64.0 01-2.33-2.57A11.07 11.07.0 01.65 27a10.63 10.63.0 01-.5-1.92 11.07 11.07.0 01-.08-3A11.93 11.93.0 011 18.61 11.43 11.43.0 012 17a11.2 11.2.0 019.38-5c1.13.0 2.27-.09 3.4.0a9.31 9.31.0 014 .87 8 8 0 014.52 6.25A7.82 7.82.0 0121 26a7.8 7.8.0 01-5.52 2.41H8.31c-.41.0-.54-.15-.55-.56V21a2.06 2.06.0 002.8.0v3.84c0 .53.16.7.69.71h3.33a5.26 5.26.0 003.46-1.41l.08-.09a5.72 5.72.0 001.4-3c-.1-6-5.88-6.21-5.88-6.21H10a7.42 7.42.0 00-1.88.51 7.22 7.22.0 00-3.47 3.4 13.15 13.15.0 00-.17 7.89 6.45 6.45.0 00.57 1.16 11.74 11.74.0 001.49 1.9A10.83 10.83.0 009 31.31c.29.08.59.16.91.22a9.15 9.15.0 001.89.1h3.37a11.34 11.34.0 0011-8.06 11 11 0 00-2.31-10.71A11.26 11.26.0 0018 9.18a14 14 0 00-3.54-.32H8.3c-.4.0-.5-.1-.5-.52V.69c0-.5.2-.69.65-.69H10c.45.0.57.13.57.57v4.81c0 .57.1.66.67.66h6.52a1.7 1.7.0 001.72-1.13 1.66 1.66.0 00-1.53-2.09h-5.59c-.33.0-.49-.16-.49-.5V.52a.43.43.0 01.47-.52h5.26c.38.0 3.29-.22 4.8 2a3.08 3.08.0 01.52 1c0 .12.09.25.13.39H23c.34 2-1.27 4.14-1.27 4.15a14.73 14.73.0 015.41 4.87 13.54 13.54.0 012.23 6.25A13.92 13.92.0 0123.23 32z" style="fill:url(#linear-gradient)"/><path class="cls-3" d="M41.76 25.45v-.73c2.12-.23 2.33-.33 2.33-2.53V11.91c0-2.23-.21-2.33-2.33-2.57v-.72h6.94v.72c-2.15.24-2.36.34-2.36 2.57v10.28c0 2.22.21 2.3 2.36 2.53v.73zM60 8.62c3.65.0 5.95.72 7.56 2.25a7.49 7.49.0 012.2 5.54 8.49 8.49.0 01-3.24 7c-2 1.48-4.48 2.05-7.66 2.05h-6.07v-.73c2.23-.2 2.33-.38 2.33-2.51V11.88c0-2.23-.31-2.33-2.33-2.54v-.72zM57.37 22c0 1.95.83 2.49 2.77 2.49 4.67.0 7-3.18 7-7.72.0-2.82-1-5-3-6.21a8.18 8.18.0 00-4.42-1 3.64 3.64.0 00-2 .37c-.23.15-.34.44-.34 1.45zM87.17 21.33c-.15.67-.85 3.34-1.11 4.12H73.48v-.73c2.4-.18 2.59-.41 2.59-2.53V12c0-2.31-.29-2.44-2.23-2.62v-.76h11.68c0 .64.13 2.58.23 4l-.78.13a8.69 8.69.0 00-.77-2c-.42-.86-1-1-2.57-1h-2.46c-.8.0-.85.08-.85.83v5.62h2.87c1.94.0 2.07-.38 2.38-2.14h.81v5.33h-.81c-.33-1.86-.54-2.12-2.4-2.12h-2.85v5.15c0 1.81.57 2 1.86 2h2.41c1.58.0 1.84-.23 2.41-.9a11.66 11.66.0 001.4-2.39zM108.35 9.34c-1.66.18-2.2.44-2.28 1.63.0.83-.07 1.92-.07 4.33v10.38h-1L93.93 12.14v6.47c0 2.33.08 3.5.13 4.25.0 1.32.7 1.71 2.56 1.86v.73h-6.29v-.73c1.61-.13 2.23-.51 2.33-1.78.08-.83.13-2 .13-4.35V12a2.22 2.22.0 00-.52-1.7c-.49-.65-1-.81-2.3-.94v-.74h3.88l11 13V15.3c0-2.41.0-3.52-.13-4.3-.08-1.17-.67-1.53-2.74-1.66v-.72h6.39zm12.4 6.99c2.49.42 4.51 1.61 4.51 4.12a4.49 4.49.0 01-2.51 4 8.58 8.58.0 01-4.48 1h-6.37v-.73c2.2-.2 2.33-.44 2.33-2.48V11.85c0-2.15-.24-2.33-2.33-2.51v-.72h6.78a6.91 6.91.0 014 .9 3.41 3.41.0 011.53 2.9 4.12 4.12.0 01-3.46 3.91zm-3-.31c2.85.0 4-1.14 4-3.26.0-1.81-1.12-3.21-3.6-3.21a2.7 2.7.0 00-1.45.26c-.21.15-.29.44-.29 1.27V16zm-1.32 6.17c0 1.86.44 2.33 2.28 2.33 2 0 4-1.09 4-3.81s-1.86-3.78-5-3.78h-1.25zm27.78 3.47c-.34.0-.62.0-1-.06a4.58 4.58.0 01-4-2.22c-1-1.32-1.89-2.95-2.72-4.27-.52-.83-.85-1-2.17-1h-.91v4.07c0 2.2.29 2.33 2.36 2.53v.73h-6.92v-.73c2.15-.23 2.33-.33 2.33-2.53V11.85c0-2.2-.28-2.27-2.33-2.51v-.72h6.61a7.27 7.27.0 014.14.88 3.87 3.87.0 011.76 3.42c0 2.22-1.42 3.62-3.34 4.45.47.8 1.58 2.54 2.36 3.7a24.17 24.17.0 002 2.67 3.72 3.72.0 001.89 1.19zm-9.56-8.42a4.19 4.19.0 002.85-.75 3.65 3.65.0 001.43-3.19c0-2.77-1.84-3.78-3.84-3.78a2.4 2.4.0 00-1.37.26c-.23.18-.31.44-.31 1.12v6.34zm12.04 8.21v-.73c2.12-.23 2.33-.33 2.33-2.53V11.91c0-2.23-.21-2.33-2.33-2.57v-.72h6.94v.72c-2.15.24-2.36.34-2.36 2.57v10.28c0 2.22.21 2.3 2.36 2.53v.73zM164.92 8.62c3.65.0 6 .72 7.56 2.25a7.49 7.49.0 012.2 5.54 8.49 8.49.0 01-3.24 7c-2 1.48-4.48 2.05-7.66 2.05h-6.06v-.73c2.23-.2 2.33-.38 2.33-2.51V11.88c0-2.23-.31-2.33-2.33-2.54v-.72zM162.3 22c0 1.95.83 2.49 2.77 2.49 4.66.0 7.05-3.18 7.05-7.72.0-2.82-1-5-3-6.21a8.18 8.18.0 00-4.42-1 3.64 3.64.0 00-2.05.37c-.23.15-.34.44-.34 1.45z"/></svg>