<svg id="Layer_1" data-name="Layer 1" xmlns="http://www.w3.org/2000/svg" xmlns:xlink="http://www.w3.org/1999/xlink" viewBox="0 0 190.25 41.02"><defs><style>.cls-1{fill:#020203;}.cls-2{fill:#1d3362;}.cls-3{fill:url(#linear-gradient);}.cls-4{fill:none;}</style><linearGradient id="linear-gradient" x1="17.24" y1="37.81" x2="17.51" y2="-5.55" gradientTransform="matrix(1, 0, 0, -1, 0, 41)" gradientUnits="userSpaceOnUse"><stop offset="0.01" stop-color="#1e5594"/><stop offset="0.48" stop-color="#2fa5de"/></linearGradient></defs><title>Idenbrid Logo</title><path class="cls-1" d="M45,29.06v-.78c2.29-.25,2.51-.36,2.51-2.73V14.48c0-2.4-.22-2.51-2.51-2.76v-.78h7.47v.78c-2.32.25-2.54.36-2.54,2.76V25.54c0,2.4.22,2.48,2.54,2.73v.78Z" transform="translate(0.25)"/><path class="cls-1" d="M64.63,10.94c3.92,0,6.41.78,8.14,2.42a8.06,8.06,0,0,1,2.37,6,9.15,9.15,0,0,1-3.48,7.52c-2.15,1.62-4.82,2.21-8.25,2.21H56.88v-.78c2.4-.22,2.51-.42,2.51-2.7V14.45c0-2.4-.33-2.51-2.51-2.73v-.78ZM61.81,25.36c0,2.09.89,2.67,3,2.67,5,0,7.58-3.43,7.58-8.3,0-3-1-5.35-3.23-6.69a8.73,8.73,0,0,0-4.76-1.12,4,4,0,0,0-2.21.39c-.25.17-.36.48-.36,1.56Z" transform="translate(0.25)"/><path class="cls-1" d="M93.88,24.62c-.17.74-.92,3.6-1.2,4.43H79.14v-.78c2.59-.2,2.79-.45,2.79-2.73v-11c0-2.48-.31-2.62-2.4-2.81v-.78h8.52c2.62,0,3.71,0,4-.06,0,.7.14,2.79.25,4.26l-.84.14a9.22,9.22,0,0,0-.84-2.12c-.44-.92-1.08-1.12-2.74-1.12H85.28c-.86,0-.92.08-.92.89v6.16h3.08c2.09,0,2.23-.42,2.57-2.31h.87v5.74H90c-.36-2-.59-2.29-2.59-2.29H84.35V25.8c0,1.95.61,2.12,2,2.14h2.59c1.7,0,2-.25,2.59-1A12.06,12.06,0,0,0,93,24.39Z" transform="translate(0.25)"/><path class="cls-1" d="M116.67,11.72c-1.79.19-2.37.47-2.45,1.76,0,.89-.08,2.06-.08,4.66V29.31h-1.06L101.15,14.73v7c0,2.51.08,3.76.14,4.57.06,1.42.75,1.84,2.76,2v.78H97.28v-.78c1.72-.14,2.4-.56,2.51-1.92.09-.89.14-2.15.14-4.68v-7.1a2.42,2.42,0,0,0-.56-1.84c-.53-.7-1.11-.86-2.48-1v-.78h4.17l11.81,14V18.13c0-2.59-.05-3.79-.14-4.63-.08-1.25-.74-1.64-3-1.78v-.78h6.88Z" transform="translate(0.25)"/><path class="cls-1" d="M130,19.25c2.67.45,4.85,1.73,4.85,4.43a4.82,4.82,0,0,1-2.7,4.29,9.21,9.21,0,0,1-4.82,1.09h-6.87v-.78c2.37-.22,2.51-.47,2.51-2.67V14.43c0-2.31-.25-2.51-2.51-2.7v-.78h7.3a7.34,7.34,0,0,1,4.29,1A3.64,3.64,0,0,1,133.72,15,4.43,4.43,0,0,1,130,19.25Zm-3.21-.33c3.07,0,4.32-1.23,4.32-3.51,0-2-1.2-3.46-3.87-3.46a2.92,2.92,0,0,0-1.56.28c-.22.17-.31.47-.31,1.37v5.32Zm-1.42,6.62c0,2,.47,2.51,2.45,2.51,2.18,0,4.29-1.17,4.29-4.1s-2-4.07-5.4-4.07H125.4Z" transform="translate(0.25)"/><path class="cls-1" d="M155.26,29.28c-.36,0-.67,0-1-.06a5,5,0,0,1-4.35-2.4c-1-1.42-2-3.18-2.93-4.6-.56-.89-.92-1.06-2.34-1.06h-1v4.37c0,2.37.31,2.51,2.54,2.73v.78h-7.43v-.78c2.31-.25,2.51-.36,2.51-2.73V14.43c0-2.37-.31-2.45-2.51-2.7v-.78h7.11a7.83,7.83,0,0,1,4.46.95,4.18,4.18,0,0,1,1.89,3.68c0,2.4-1.53,3.9-3.59,4.79.49.86,1.7,2.73,2.53,4a25.85,25.85,0,0,0,2.21,2.87,4,4,0,0,0,2,1.28ZM145,20.22a4.49,4.49,0,0,0,3.06-.81A3.92,3.92,0,0,0,149.57,16c0-3-2-4.07-4.12-4.07a2.51,2.51,0,0,0-1.47.28c-.25.19-.34.47-.34,1.2v6.83Z" transform="translate(0.25)"/><path class="cls-1" d="M157.93,29.06v-.78c2.28-.25,2.51-.36,2.51-2.73V14.48c0-2.4-.22-2.51-2.51-2.76v-.78h7.47v.78c-2.31.25-2.54.36-2.54,2.76V25.54c0,2.4.22,2.48,2.54,2.73v.78Z" transform="translate(0.25)"/><path class="cls-1" d="M177.55,10.94c3.92,0,6.41.78,8.14,2.42a8.07,8.07,0,0,1,2.37,6,9.15,9.15,0,0,1-3.48,7.52c-2.15,1.62-4.82,2.21-8.25,2.21H169.8v-.78c2.4-.22,2.51-.42,2.51-2.7V14.45c0-2.4-.33-2.51-2.51-2.73v-.78Zm-2.81,14.41c0,2.09.89,2.67,3,2.67,5,0,7.58-3.43,7.58-8.3,0-3-1-5.35-3.23-6.69a8.81,8.81,0,0,0-4.76-1.12,4,4,0,0,0-2.21.39c-.25.17-.36.48-.36,1.56Z" transform="translate(0.25)"/><path class="cls-2" d="M13,22a1.62,1.62,0,0,1-1.61,1.64h0a1.68,1.68,0,0,1-1.48-.87A1.58,1.58,0,0,1,9.69,22a1.63,1.63,0,0,1,.19-.76,1.74,1.74,0,0,1,1.47-.94,1.6,1.6,0,0,1,1.17.49A1.72,1.72,0,0,1,13,22Z" transform="translate(0.25)"/><path class="cls-3" d="M26.69,36.23a14.41,14.41,0,0,1-7.11,2.59,30.17,30.17,0,0,1-3.4.18,31.45,31.45,0,0,1-5.36-.37,10.65,10.65,0,0,1-5-2.45,13.51,13.51,0,0,1-2.55-2.82,11.83,11.83,0,0,1-1.87-4.7,12.2,12.2,0,0,1-.09-3.33,12.73,12.73,0,0,1,1-3.76A10.79,10.79,0,0,1,3.4,19.75a12.3,12.3,0,0,1,6.12-4.7,12.6,12.6,0,0,1,4.19-.68c1.24,0,2.48-.09,3.73,0a10.13,10.13,0,0,1,4.41,1,8.73,8.73,0,0,1,5,6.84,8.56,8.56,0,0,1-2.51,7.49,8.53,8.53,0,0,1-6,2.65c-2.62,0-5.24,0-7.85,0-.44,0-.59-.16-.59-.61V24.23c0-3.71,1.36,1.36,3.07,0,0,1.3,0,2.76,0,4.21,0,.58.18.76.76.77h.8l1.57,0h1.26A5.75,5.75,0,0,0,21,27.68l.09-.09a6.33,6.33,0,0,0,1.54-3.29c-.12-6.54-6.44-6.8-6.44-6.8h-4a8.21,8.21,0,0,0-2.06.56,8,8,0,0,0-3.81,3.73,14.35,14.35,0,0,0-.18,8.64,6.45,6.45,0,0,0,.63,1.27,12.77,12.77,0,0,0,1.62,2.08,11.55,11.55,0,0,0,2.66,1.7c.32.09.65.17,1,.24a10.52,10.52,0,0,0,2.07.12c1.23,0,2.47,0,3.7,0A12.12,12.12,0,0,0,24.51,34a12.25,12.25,0,0,0,5.34-7,12.07,12.07,0,0,0-2.52-11.74,12.35,12.35,0,0,0-6.4-4,15.28,15.28,0,0,0-3.86-.34H10.35c-.43,0-.54-.11-.55-.57V6.09q0-2.08,0-4.16c0-.55.16-.72.71-.72h1.68c.49,0,.63.13.63.63V7.11c0,.63.1.73.73.73h7.15a1.86,1.86,0,0,0,1.88-1.24A1.82,1.82,0,0,0,20.88,4.3c-.86,0-1.72,0-2.59,0l-3.53,0c-.37,0-.53-.18-.54-.55V1.78c0-.39.18-.56.54-.56,1.92,0,3.84,0,5.76,0,.41,0,3.6-.24,5.26,2.23a3.31,3.31,0,0,1,.56,1.11c.05.14.1.28.14.43l-.05,0c.37,2.22-1.39,4.53-1.39,4.54A16.15,16.15,0,0,1,31,14.82a14.81,14.81,0,0,1,2.45,6.84A15.25,15.25,0,0,1,26.69,36.23Z" transform="translate(0.25)"/><rect class="cls-4" x="0.25" width="190" height="41"/><rect class="cls-4" y="0.02" width="190" height="41"/></svg>